<svg xmlns="http://www.w3.org/2000/svg" version="1.1" xmlns:xlink="http://www.w3.org/1999/xlink" width="1500" height="91" viewBox="0 0 1500 91"><svg xml:space="preserve" width="1500" height="91" data-version="2" data-id="lg_t2ApcBa8FhHqBnBwfc" viewBox="0 0 215 91" x="0" y="0"><rect width="100%" height="100%" fill="transparent"></rect><path fill="#2d00aa" d="M72.529 46.3h5.41q5.17 0 7.2 1.83 2.03 1.83 2.03 5.16 0 2.29-.81 3.89-.8 1.6-2.83 2.5-2.03.89-5.59.89h-5.41v4.58h-6.39q.2-5.05.2-9.44t-.2-9.44h6.39zm0 9.25h3.59q2.16 0 3.24-.16 1.08-.17 1.51-.62.42-.44.42-1.3 0-.85-.4-1.28-.4-.43-1.48-.59-1.08-.15-3.29-.15h-3.59z"></path><rect width="21.03" height="18.88" x="-10.52" y="-9.44" fill="none" rx="0" ry="0" transform="translate(77.15 56.21)"></rect><path fill="#2d00aa" d="M104.929 46.27h6.11q-.18 4.4-.18 9.44 0 5.04.18 9.44h-6.11v-7.07h-9.57v7.07h-6.11q.21-5.05.21-9.44t-.21-9.44h6.11v7.07h9.57z"></path><rect width="21.79" height="18.88" x="-10.89" y="-9.44" fill="none" rx="0" ry="0" transform="translate(100.64 56.21)"></rect><path fill="#2d00aa" d="M136.259 65.15h-6.74q-.49-1.48-1.32-3.72h-8.3l-1.3 3.72h-6.52l7.28-18.88h9.57zm-14.87-7.78h5.33q-.99-2.73-2.03-5.46l-.63-1.69q-.91 2.37-2.67 7.15"></path><rect width="24.18" height="18.88" x="-12.09" y="-9.44" fill="none" rx="0" ry="0" transform="translate(124.67 56.21)"></rect><path fill="#2d00aa" d="M158.509 52.56q0 2.27-1.1 3.83-1.11 1.56-3.78 2.26.31.41.44.65l4.21 5.85h-7.07q-1.15-2.13-3.62-6.03h-3.82v6.03h-6.13q.2-5.05.2-9.44t-.2-9.44h6.13v.03h5.33q5.25 0 7.33 1.69t2.08 4.57m-11.23-1.27h-3.51v2.96h3.51q2.21 0 3.34-.14t1.58-.45q.44-.32.44-.91 0-.58-.42-.89-.41-.31-1.56-.44-1.14-.13-3.38-.13"></path><rect width="20.87" height="18.88" x="-10.44" y="-9.44" fill="none" rx="0" ry="0" transform="translate(148.57 56.21)"></rect><path fill="#2d00aa" d="M175.699 46.27h9.2l2.03 18.88h-6.73l-.42-13.47-2.6 13.47h-6.81l-2.65-13.37-.39 13.37h-6.74l2.03-18.88h8.84l2.26 12.3z"></path><rect width="26.34" height="18.88" x="-13.17" y="-9.44" fill="none" rx="0" ry="0" transform="translate(174.26 56.21)"></rect><path fill="#2d00aa" d="M212.149 65.15h-6.73q-.5-1.48-1.33-3.72h-8.29l-1.3 3.72h-6.53l7.28-18.88h9.57zm-14.87-7.78h5.33q-.99-2.73-2.03-5.46l-.62-1.69q-.91 2.37-2.68 7.15"></path><rect width="24.18" height="18.88" x="-12.09" y="-9.44" fill="none" rx="0" ry="0" transform="translate(200.56 56.21)"></rect><path fill="#2d00aa" d="M81.369 79.56q5.93 0 5.93 3.77 0 1.77-.81 3-.8 1.24-2.88 1.93t-5.77.69h-11.7q.2-5.05.2-9.44 0-4.4-.2-9.44h6.11v.03h5.53q3.23 0 5.09.53 1.86.53 2.62 1.55.77 1.01.77 2.57 0 1.59-1.1 2.82-1.11 1.24-3.79 1.99m-4.13-4.73h-4.99v2.42h4.99q1.61 0 2.25-.29.63-.29.63-1.04 0-.6-.66-.84-.66-.25-2.22-.25m-4.99 9.36h4.99q1.35 0 2.07-.12.71-.12 1.02-.41.31-.3.31-.82 0-.68-.74-.98-.74-.3-2.66-.3h-4.99z"></path><rect width="21.16" height="18.88" x="-10.58" y="-9.44" fill="none" rx="0" ry="0" transform="translate(77.22 80.01)"></rect><path fill="#2d00aa" d="M110.259 76.36q0 2.26-1.11 3.82-1.1 1.56-3.78 2.27.31.41.44.65l4.21 5.85h-7.07q-1.14-2.14-3.61-6.04h-3.82v6.04h-6.14q.21-5.05.21-9.44 0-4.4-.21-9.44h6.14v.03h5.33q5.25 0 7.33 1.69t2.08 4.57m-11.23-1.27h-3.51v2.96h3.51q2.21 0 3.34-.14t1.57-.46q.44-.31.44-.91 0-.57-.41-.88-.42-.31-1.56-.44-1.15-.13-3.38-.13"></path><rect width="20.88" height="18.88" x="-10.44" y="-9.44" fill="none" rx="0" ry="0" transform="translate(100.32 80.01)"></rect><path fill="#2d00aa" d="M127.439 70.07v5.17q-3.09-.15-4.57-.18v8.89q1.51-.02 4.57-.18v5.18h-15.1v-5.18q2.99.16 4.55.18v-8.89q-1.56.03-4.55.18v-5.17z"></path><rect width="15.1" height="18.88" x="-7.55" y="-9.44" fill="none" rx="0" ry="0" transform="translate(120.39 80.01)"></rect><path fill="#2d00aa" d="M137.839 69.78q4.89 0 7.73 1.19 2.83 1.18 3.96 3.27 1.13 2.1 1.13 5.14 0 2.88-1.3 5.04t-3.9 3.34q-2.6 1.19-6.39 1.19h-4.71q-2.39 0-4.84-.03.21-5.12.21-9.54 0-4.47-.21-9.34 3.1-.26 8.32-.26m-1.82 13.99h3.77q2.42 0 3.23-1.17.8-1.17.8-3.22 0-1.98-.84-3.2-.85-1.22-3.19-1.22-2.52 0-3.77.15z"></path><rect width="21.14" height="19.17" x="-10.57" y="-9.59" fill="none" rx="0" ry="0" transform="translate(140.59 79.87)"></rect><path fill="#2d00aa" d="M163.449 82.39v-4.21h11.11v10.77h-4.58l-.55-4.61q-.78 2.47-2.78 3.67-2 1.2-4.89 1.2-2.62 0-4.66-1.17t-3.2-3.36q-1.16-2.18-1.16-5.09 0-4.66 2.78-7.36 2.79-2.71 8.66-2.71 3.36 0 5.92 1.1 2.56 1.09 4.35 3.38-1.17.59-4.57 2.39l-.65.36q-1.02-1.01-2.37-1.52t-2.86-.51q-2.5 0-3.72 1.32-1.22 1.31-1.22 3.23 0 2.08 1.31 3.36 1.32 1.27 4.02 1.27 1.17 0 2.28-.34 1.1-.33 1.85-1.17z"></path><rect width="21.82" height="19.69" x="-10.91" y="-9.85" fill="none" rx="0" ry="0" transform="translate(164.15 79.87)"></rect><path fill="#2d00aa" d="M182.769 81.48v2.71q9.88-.05 14.33-.29-.18 1.07-.22 2.2-.04 1.13-.04 2.85h-20.2q.2-5.05.2-9.44 0-4.4-.2-9.44h20.2v4.71h-14.07v2.49q1.25.03 3.69.03 4.14 0 8.56-.16v4.47q-4.42-.15-8.56-.15-2.44 0-3.69.02"></path><rect width="20.46" height="18.88" x="-10.23" y="-9.44" fill="none" rx="0" ry="0" transform="translate(187.37 80.01)"></rect><path fill="#8860cb" d="m47.5 27.188 7.82-4.66-7.82-4.657 2.748-4.778C23.08 9.245 1.853 15.709 1.853 15.709v42.625c0 16.046 31 29.626 31 29.626S63.85 74.383 63.85 58.334V38.54l-6.98 4.034zm-14.957-7.322c3.396 0 6.236 2.751 6.236 6.146 0 2.62-1.793 4.85-3.86 5.735v1.604c-1.032.228-2.613.515-4.143.896-.042.012.01.022.01.033v-2.532c-3.1-.885-4.169-3.117-4.169-5.735 0-3.394 2.532-6.147 5.926-6.147M34.92 72.28v1.006c0 1.216-.853 2.2-2.067 2.2-1.215 0-2.066-.984-2.066-2.2V61.891c0-.267 1.59-.473 2.501-.656.47-.093.927-.183 1.412-.272.078-.013.22-.029.22-.045zm3.77.957a.6.6 0 0 1-.6-.6c-.02.009.247-.278.052-.667-.146-.321-1.156-.716-1.156-1.025v-1.38c1.034.388 1.902 1.073 2.252 1.852.183.375.131.703.142.905.015.208-.034.316-.034.316 0 .331-.324.599-.656.599m4.314-18.916c-.048.23-.12.458-.189.684-.083.22-.201.43-.309.64-.494.817-1.353 1.35-2.031 1.727-.778.42-1.422.701-2.455.92v.002c0 .01.081.017.05.025-.253.07-.432.138-.682.196-.053.014-.069.026-.124.039-.25.06-.481.115-.73.172-1.318.283-2.593.497-3.826.743-1.231.248-2.424.507-3.498.898a8.376 8.376 0 0 0-.667.269 9.02 9.02 0 0 0-.824.412c-.435.276-.831.577-1.11.932-.555.7-.72 1.622-.564 2.559.126.9.693 1.616 1.38 2.153.37.281.262.512 1.295.713v1.644c-1.033-.253-1.533-.592-2.242-1.099-.461-.36-.973-.776-1.316-1.324-.34-.538-.633-1.159-.73-1.797-.08-.321-.085-.637-.114-.962.007-.329.007-.668.07-1.007.105-.688.414-1.364.833-1.946.432-.581.983-1.02 1.551-1.4a10.82 10.82 0 0 1 1.61-.803c.055-.022.11-.05.166-.073.006 0 .01-.005.015-.006 1.226-.481 2.486-.785 3.749-1.077 1.263-.287 2.537-.536 3.779-.839.466-.114.93-.242 1.383-.38.748-.228 1.461-.496 2.06-.848.992-.574 1.391-1.293 1.23-2.173-.076-.372-.28-.681-.666-.988-.385-.299-.669-.567-1.242-.77-.654-.245-1.87-.43-1.87-.59v-2.536c1.034.226 1.744.492 2.744.89.7.278 1.305.648 1.978 1.205a3.91 3.91 0 0 1 1.364 2.401c.023.237.022.477.025.711-.017.228-.067.457-.093.683m-12.217 1.863V41.321c0-.158.97-.304 1.577-.44.93-.205 1.523-.373 2.556-.515v14.809c-1.033.099-.964.2-1.404.295-.505.109-.834.217-1.345.333-.525.12-1.384.248-1.384.382m13.387-18.519c-.862.113-1.532.977-2.725.977-2.62 0-2.371-.665-4.16-.438-.249.029-.49.055-.748.087a53.383 53.383 0 0 0-4.873.832 27.041 27.041 0 0 0-2.905.81c-.073.024-.146.054-.22.081a18.496 18.496 0 0 0-.642.24l-.108.045c-.18.074-.36.15-.538.229-.094.043-.185.089-.278.134-.121.059-.243.115-.362.177a9.582 9.582 0 0 0-.62.355c-.829.521-1.515 1.173-1.688 1.83-.082.16-.06.34-.1.515.025.177-.006.39.062.546.02.178.115.325.18.491.114.149.205.312.371.458.3.303.717.594 1.217.834.482.252 1.132.452 1.703.647.293.09.98.175.98.257v2.771c-1.033-.122-1.21-.255-1.772-.415-.68-.207-1.401-.427-2.081-.753-.675-.307-1.38-.72-2-1.302-.317-.277-.597-.64-.852-1.007-.218-.399-.438-.807-.537-1.25-.148-.438-.15-.867-.185-1.302.035-.441.041-.89.189-1.31.101-.437.3-.812.496-1.189.097-.19.226-.337.34-.506.12-.16.233-.333.368-.462.26-.277.522-.558.803-.772l.415-.338.423-.289c1.132-.752 2.272-1.25 3.373-1.668a30.04 30.04 0 0 1 3.207-.99 57.544 57.544 0 0 1 5.633-1.106c.258-.037.501-.068.748-.102 2.396-.317 4.718-.457 6.479-.345 1.792.114 3.02.485 3.115 1.206.19 1.425-1.846 1.91-2.708 2.022"></path><path fill="#8860cb" d="M94.85 17.035 88.123 5.772l-8.772 5.218V.79H65.918v10.2L57.32 5.772l-6.624 11.263 9.269 5.497-9.196 5.487 6.54 11.273 8.608-5.229V44.19H79.35V34.063l8.772 5.229 6.717-11.273-9.217-5.487z"></path></svg></svg>